<?xml version="1.0" standalone="no"?>
<!DOCTYPE svg PUBLIC "-//W3C//DTD SVG 20010904//EN"
 "http://www.w3.org/TR/2001/REC-SVG-20010904/DTD/svg10.dtd">
<svg version="1.0" xmlns="http://www.w3.org/2000/svg"
 width="557.000000pt" height="554.000000pt" viewBox="0 0 557.000000 554.000000"
 preserveAspectRatio="xMidYMid meet">

<g transform="translate(0.000000,554.000000) scale(0.100000,-0.100000)"
fill="#000000" stroke="none">
<path d="M2665 5245 c-63 -63 -2 -166 80 -135 25 9 26 8 23 -16 -2 -15 -13
-33 -25 -41 -19 -13 -24 -12 -42 6 -22 22 -51 28 -51 10 0 -25 23 -49 53 -54
75 -14 117 33 117 134 0 49 -4 65 -26 90 -34 41 -92 44 -129 6z m99 -38 c13
-37 -3 -62 -40 -62 -26 0 -29 4 -32 33 -6 63 52 86 72 29z"/>
<path d="M2926 5241 c-21 -17 -46 -33 -57 -36 -21 -7 -25 -30 -9 -40 6 -4 22
0 35 9 13 9 26 16 29 16 3 0 2 -40 -1 -89 -4 -66 -3 -90 7 -96 8 -5 18 -2 25
8 15 21 30 236 17 249 -5 5 -24 -4 -46 -21z"/>
<path d="M2450 5243 c-64 -33 -62 -120 3 -151 23 -11 32 -11 59 2 40 21 40 21
32 -11 -13 -52 -47 -70 -74 -38 -19 23 -42 19 -38 -7 5 -34 50 -52 93 -38 43
14 65 53 65 115 0 110 -63 167 -140 128z m68 -35 c7 -7 12 -24 12 -38 0 -51
-52 -69 -71 -26 -17 36 -4 76 24 76 13 0 28 -5 35 -12z"/>
<path d="M3078 5230 c-43 -33 -61 -145 -33 -199 16 -31 33 -41 71 -41 62 0 94
51 94 150 0 51 -4 65 -25 85 -30 30 -73 32 -107 5z m82 -35 c17 -21 3 -129
-20 -158 -29 -35 -54 -13 -58 51 -5 90 40 153 78 107z"/>
<path d="M2215 5196 c-44 -44 -41 -141 7 -208 16 -23 27 -28 59 -28 52 0 73
12 89 49 32 79 -50 153 -118 105 -21 -15 -22 -14 -22 15 0 16 7 37 16 46 15
14 18 14 40 0 46 -30 75 -7 36 28 -27 25 -78 21 -107 -7z m103 -118 c26 -26 8
-88 -24 -88 -32 0 -60 71 -37 93 11 11 48 8 61 -5z"/>
<path d="M3265 5190 c-13 -14 -16 -29 -12 -54 4 -27 1 -37 -14 -48 -10 -7 -22
-27 -25 -44 -14 -71 97 -125 151 -74 26 25 34 77 15 96 -7 7 -4 16 10 29 29
26 26 69 -6 94 -35 27 -95 28 -119 1z m83 -19 c8 -4 12 -19 10 -32 -4 -33 -53
-40 -63 -9 -11 36 22 61 53 41z m-8 -120 c20 -39 -22 -82 -60 -61 -20 11 -25
35 -14 64 9 23 61 21 74 -3z"/>
<path d="M2053 5163 l-53 -16 0 -56 c0 -32 6 -65 13 -75 12 -16 14 -16 40 8
32 30 49 32 72 10 36 -37 -2 -115 -42 -86 -31 22 -44 25 -55 14 -19 -19 19
-52 59 -52 90 0 135 82 80 145 -23 28 -53 34 -99 21 -25 -7 -28 -6 -28 16 0
20 8 27 48 39 27 9 47 21 47 29 0 20 -22 21 -82 3z"/>
<path d="M3510 5074 c-92 -68 -98 -90 -30 -114 40 -14 45 -19 45 -45 0 -38 31
-48 40 -12 5 18 13 25 31 25 20 0 24 -5 24 -30 0 -69 90 -103 146 -54 57 48
26 136 -47 136 -27 0 -29 2 -19 20 27 50 85 47 92 -3 4 -29 32 -28 36 0 5 34
-39 73 -82 73 -43 0 -90 -38 -108 -85 -13 -38 -16 -39 -37 -26 -11 7 -10 19 8
72 11 35 21 71 21 81 0 32 -42 19 -120 -38z m49 -53 c-10 -35 -15 -40 -33 -35
-49 15 -50 20 -5 52 24 16 45 29 47 27 2 -2 -2 -22 -9 -44z m187 -86 c16 -40
-25 -93 -60 -79 -22 8 -30 47 -16 73 13 25 67 29 76 6z"/>
<path d="M1863 5054 c-9 -4 -9 -13 -2 -30 14 -37 12 -44 -17 -54 -17 -7 -24
-16 -22 -28 4 -17 18 -20 53 -9 17 6 23 1 32 -24 10 -27 14 -29 33 -19 16 9
18 15 10 30 -16 30 -12 40 19 51 22 8 28 15 24 30 -5 17 -11 19 -44 14 -35 -6
-39 -5 -45 19 -6 25 -16 30 -41 20z"/>
<path d="M1508 5030 c-86 -46 -127 -141 -101 -240 10 -38 11 -62 3 -89 -17
-60 -15 -62 40 -45 45 13 55 13 96 -1 82 -28 176 8 230 87 24 36 29 53 29 103
0 79 -27 130 -89 173 -42 28 -56 32 -110 32 -40 -1 -73 -7 -98 -20z m195 -37
c44 -28 76 -89 77 -143 0 -20 -10 -56 -22 -80 -41 -81 -124 -115 -210 -86 -25
9 -59 13 -75 10 l-29 -6 -3 59 c-8 154 -7 171 15 199 62 84 161 103 247 47z"/>
<path d="M1509 4919 c-29 -54 107 -178 166 -151 14 6 25 18 25 26 0 19 -39 31
-53 17 -17 -17 -33 -13 -67 15 -25 21 -30 32 -25 51 13 53 -22 86 -46 42z"/>
<path d="M3885 4980 c-46 -19 -95 -100 -95 -157 0 -95 130 -122 167 -36 23 57
-6 105 -72 115 -19 3 -19 4 3 26 26 26 61 29 68 5 15 -50 39 -66 49 -34 8 27
-9 58 -45 76 -32 17 -46 18 -75 5z m23 -122 c26 -26 0 -88 -38 -88 -38 0 -51
40 -24 78 17 24 43 29 62 10z"/>
<path d="M4035 4874 c-20 -20 -14 -40 11 -36 10 2 33 5 49 5 26 2 30 -2 33
-25 4 -36 -26 -54 -103 -63 -113 -13 -122 -36 -37 -93 80 -54 78 -53 92 -37
10 12 4 20 -35 47 -52 37 -48 42 37 53 63 8 98 37 98 80 0 63 -102 112 -145
69z"/>
<path d="M978 4400 c-36 -28 -43 -55 -24 -85 20 -30 35 -31 88 -4 29 15 43 18
51 10 18 -18 -6 -46 -42 -49 -34 -4 -42 -27 -12 -37 28 -9 67 13 87 50 17 31
17 35 1 59 -21 31 -50 33 -95 6 -42 -26 -54 -25 -50 2 2 17 12 24 33 28 18 3
30 11 30 20 0 23 -38 23 -67 0z"/>
<path d="M4550 4404 c-46 -20 -87 -60 -112 -108 -30 -58 -22 -148 17 -203 33
-46 76 -78 118 -89 l28 -6 -3 73 c-3 69 -5 74 -28 79 -37 9 -35 54 3 58 24 3
27 7 27 40 0 21 7 47 15 59 17 24 64 38 95 28 30 -9 23 -47 -10 -55 -19 -4
-26 -13 -28 -38 -3 -29 -1 -32 23 -32 23 0 26 -4 23 -27 -2 -20 -9 -29 -25
-31 -22 -3 -23 -8 -23 -78 0 -74 1 -75 23 -68 74 23 130 83 147 159 36 159
-140 304 -290 239z"/>
<path d="M880 4277 c-13 -7 -31 -28 -41 -47 -16 -29 -17 -37 -5 -55 17 -25 31
-18 31 15 1 34 12 50 36 50 22 0 24 -15 4 -50 -8 -14 -14 -36 -15 -50 -1 -74
101 -64 112 10 1 14 10 25 18 25 8 0 16 8 18 18 2 9 -1 17 -6 17 -5 0 -29 15
-53 33 -57 43 -71 48 -99 34z m90 -82 c18 -21 4 -65 -20 -65 -27 0 -34 17 -20
51 14 33 22 36 40 14z"/>
<path d="M704 4169 c-7 -12 40 -59 60 -59 4 0 -6 -13 -23 -29 -40 -38 -39 -66
4 -106 63 -60 138 -52 152 15 3 17 12 30 19 30 8 0 14 8 14 18 -1 11 -35 38
-94 74 -111 68 -122 73 -132 57z m146 -121 c12 -11 20 -29 18 -41 -7 -48 -108
-21 -108 29 0 44 48 51 90 12z"/>
<path d="M2266 4075 c-9 -26 -7 -32 5 -12 6 10 9 21 6 23 -2 3 -7 -2 -11 -11z"/>
<path d="M603 3994 c-7 -19 11 -39 26 -30 16 10 13 33 -4 40 -9 3 -18 -1 -22
-10z"/>
<path d="M4762 3989 c-84 -42 -110 -118 -72 -208 25 -56 77 -101 117 -101 16
0 23 -6 23 -20 0 -16 7 -20 38 -20 35 0 39 -3 54 -44 16 -43 16 -44 -9 -69
-25 -24 -24 -47 0 -47 7 0 54 37 105 81 71 62 92 87 90 103 -3 20 -8 21 -142
21 -103 0 -140 3 -143 13 -3 6 -11 12 -18 12 -47 0 -112 107 -101 165 11 58
78 105 151 105 40 0 52 -5 80 -33 56 -56 59 -114 7 -162 -20 -18 -38 -25 -69
-25 -42 0 -66 16 -43 30 6 4 36 13 66 20 41 10 54 18 54 32 0 10 -4 18 -8 18
-4 0 -12 15 -17 33 -18 59 -99 73 -159 26 -29 -23 -35 -69 -12 -88 7 -6 16
-25 19 -41 12 -57 109 -79 174 -39 63 39 79 108 43 178 -40 78 -138 104 -228
60z m127 -93 c15 -18 5 -41 -25 -55 -51 -23 -102 -5 -89 31 13 33 93 50 114
24z m126 -281 c-41 -35 -48 -35 -59 2 -7 23 6 29 69 31 l30 1 -40 -34z"/>
<path d="M662 3953 c3 -19 123 -92 151 -92 37 -2 11 34 -53 70 -72 42 -103 49
-98 22z"/>
<path d="M617 3872 c-10 -10 -17 -30 -17 -44 0 -14 -7 -28 -15 -32 -8 -3 -15
-10 -15 -16 0 -13 152 -88 168 -83 25 9 10 29 -46 58 -46 24 -57 35 -57 55 0
33 31 37 84 11 46 -24 81 -27 81 -8 0 14 -121 77 -149 77 -10 0 -25 -8 -34
-18z"/>
<path d="M3520 3854 c0 -4 165 -298 176 -312 2 -3 386 214 500 282 l59 36
-367 0 c-203 0 -368 -3 -368 -6z"/>
<path d="M2085 3753 c-48 -25 -114 -94 -126 -132 -14 -41 -14 -87 -1 -104 5
-7 12 -25 16 -40 4 -17 42 -64 94 -115 73 -72 98 -90 146 -106 46 -16 65 -18
96 -9 l38 10 159 -159 158 -158 -363 -363 c-265 -266 -362 -369 -362 -386 0
-12 13 -36 29 -52 59 -58 51 -64 441 326 195 195 359 355 365 355 5 0 170
-160 365 -355 387 -386 379 -380 439 -329 65 54 69 48 -329 448 l-360 361 159
158 c142 142 161 158 179 148 25 -13 89 -15 96 -2 3 5 18 12 33 16 15 3 40 17
57 30 57 45 116 100 116 109 0 4 11 21 25 38 14 16 25 36 25 44 0 8 7 26 16
39 66 100 -155 302 -250 230 -11 -8 -26 -15 -34 -15 -39 0 -212 -175 -212
-215 0 -7 -7 -27 -16 -45 -14 -27 -15 -38 -4 -73 l12 -40 -154 -154 c-84 -84
-156 -152 -160 -151 -4 2 -77 72 -162 157 -143 141 -154 155 -145 178 13 35
11 75 -6 97 -8 11 -15 26 -15 34 0 39 -173 212 -212 212 -8 0 -23 7 -34 15
-25 19 -81 18 -119 -2z m95 -24 c0 -16 -161 -179 -177 -179 -18 0 -27 24 -19
55 8 31 61 92 101 117 33 20 95 24 95 7z m1301 -18 c25 -16 56 -45 68 -65 24
-38 25 -86 2 -94 -14 -5 -181 159 -181 178 0 21 67 9 111 -19z m-1232 0 c11
-7 12 -15 5 -30 -10 -22 -202 -201 -216 -201 -5 0 -11 7 -15 15 -3 11 27 50
93 119 55 57 104 104 109 105 6 0 16 -3 24 -8z m1181 -93 c92 -95 112 -126 85
-135 -10 -3 -203 168 -219 195 -6 11 -3 19 10 29 10 7 19 13 21 13 1 0 48 -46
103 -102z m-1111 38 c18 -22 0 -44 -122 -152 -87 -77 -111 -93 -122 -84 -11
10 7 33 103 130 64 66 120 119 123 119 4 1 12 -5 18 -13z m1059 -107 c96 -99
111 -118 98 -128 -13 -11 -29 -1 -98 64 -146 136 -161 154 -147 171 7 8 17 14
23 12 6 -2 62 -55 124 -119z m-998 31 c0 -21 -212 -220 -234 -220 -32 0 -14
27 85 125 55 55 105 108 110 118 8 15 13 16 25 6 8 -6 14 -19 14 -29z m1036
-218 c-12 -12 -32 3 -130 94 -64 60 -116 112 -116 117 0 5 5 17 10 27 9 17 23
6 130 -103 100 -102 117 -124 106 -135z m-996 154 c0 -17 -28 -51 -95 -115
-90 -86 -112 -100 -128 -84 -8 8 205 231 216 225 4 -2 7 -14 7 -26z m934 -198
c-12 -19 -38 -2 -128 83 -91 86 -112 120 -90 142 9 8 224 -215 218 -225z
m-904 127 c0 -42 -21 -72 -86 -124 -49 -40 -67 -49 -84 -43 -19 7 -16 12 33
54 29 25 68 66 87 91 40 53 50 57 50 22z m683 3 c8 -13 47 -55 86 -94 63 -62
70 -72 52 -77 -26 -6 -141 81 -158 120 -14 33 -17 73 -4 73 5 0 15 -10 24 -22z
m-531 -255 c82 -81 148 -152 147 -158 0 -5 -14 -21 -30 -34 l-31 -24 -144 144
c-79 79 -144 148 -144 152 0 12 40 67 48 67 4 0 73 -66 154 -147z m533 115
l27 -31 -452 -451 -451 -451 -25 29 c-14 15 -24 32 -22 37 4 11 880 895 890
897 3 1 18 -12 33 -30z m187 -900 l-32 -33 -240 240 -241 241 33 32 32 33 240
-240 241 -241 -33 -32z m-1106 -30 l29 -33 -32 29 c-31 28 -38 36 -30 36 2 0
16 -15 33 -32z m1139 2 c-16 -16 -31 -28 -33 -25 -7 7 39 55 52 55 5 0 -3 -13
-19 -30z m222 -178 c5 -23 -19 -62 -40 -62 -13 0 -187 171 -187 184 0 5 12 23
27 38 l27 28 83 -82 c46 -46 86 -93 90 -106z m-1395 151 l28 -27 -92 -93 c-51
-51 -97 -93 -102 -93 -16 0 -46 32 -46 50 0 14 166 190 179 190 3 0 18 -12 33
-27z"/>
<path d="M2698 3693 c-14 -43 -47 -132 -72 -198 -25 -65 -46 -120 -46 -122 0
-2 20 -3 44 -3 l45 0 16 55 16 55 74 0 74 0 11 -42 c6 -24 13 -49 15 -55 5
-15 95 -18 95 -4 0 5 -30 95 -66 200 l-66 191 -57 0 -57 0 -26 -77z m102 -54
c12 -39 24 -78 27 -85 4 -11 -8 -14 -51 -14 -31 0 -56 3 -56 7 0 13 51 163 55
163 2 0 14 -32 25 -71z"/>
<path d="M470 3721 c0 -15 18 -26 76 -49 93 -36 117 -55 109 -85 -16 -52 -41
-53 -147 -10 -70 28 -88 29 -88 4 0 -26 145 -84 198 -79 70 6 109 110 58 157
-24 23 -158 80 -188 81 -11 0 -18 -7 -18 -19z"/>
<path d="M5030 3486 c-86 -23 -116 -35 -118 -48 -2 -10 3 -18 10 -18 10 0 12
-11 10 -39 -3 -33 0 -42 22 -56 19 -13 38 -16 67 -12 83 11 120 64 81 116
l-21 28 40 12 c35 11 51 33 32 44 -5 3 -60 -9 -123 -27z m40 -61 c16 -20 4
-50 -26 -63 -47 -22 -84 -9 -84 29 0 40 84 66 110 34z"/>
<path d="M456 3451 c-21 -24 -18 -89 5 -104 26 -16 62 0 87 38 24 38 44 42 51
10 2 -12 -7 -28 -24 -41 -15 -12 -24 -27 -21 -33 20 -31 76 23 76 73 0 78 -77
89 -115 16 -9 -17 -22 -30 -30 -30 -22 0 -18 38 5 52 11 7 20 18 20 25 0 20
-35 15 -54 -6z"/>
<path d="M1157 3348 c36 -62 90 -156 121 -208 30 -52 67 -115 82 -140 15 -25
40 -69 55 -98 16 -29 33 -51 38 -49 10 3 181 296 176 302 -2 2 -44 27 -94 56
-278 161 -433 249 -440 249 -2 0 26 -51 62 -112z"/>
<path d="M1956 3339 c-17 -45 -17 -52 -3 -66 9 -9 23 -13 36 -8 26 8 27 46 3
93 l-18 33 -18 -52z"/>
<path d="M3556 3345 c-9 -21 -16 -43 -16 -50 0 -21 28 -37 51 -30 18 6 20 12
16 41 -3 19 -12 43 -21 55 -14 21 -15 21 -30 -16z"/>
<path d="M441 3298 c-11 -4 -24 -16 -30 -27 -22 -40 -7 -111 24 -111 23 0 28
20 10 40 -21 23 -11 60 16 60 16 0 19 -7 19 -45 0 -73 48 -107 91 -64 17 17
20 29 15 59 -3 22 -2 41 4 45 5 3 10 12 10 19 0 15 -130 35 -159 24z m109 -63
c17 -20 8 -50 -15 -50 -15 0 -21 8 -23 33 -4 35 16 44 38 17z"/>
<path d="M2033 3244 c-20 -63 -12 -87 30 -92 18 -2 29 3 37 18 9 17 6 31 -15
75 -14 30 -27 55 -30 55 -2 0 -12 -25 -22 -56z"/>
<path d="M3471 3252 c-30 -64 -26 -97 13 -97 42 0 53 24 38 82 -7 26 -17 51
-21 56 -4 4 -18 -14 -30 -41z"/>
<path d="M5014 3286 c-54 -24 -67 -92 -26 -138 14 -17 52 -25 52 -12 0 3 -11
20 -25 36 -23 27 -24 33 -12 52 23 33 41 26 49 -22 4 -23 10 -47 13 -52 19
-30 95 17 95 59 0 73 -70 110 -146 77z m104 -62 c3 -19 -23 -52 -33 -42 -3 2
-8 19 -11 37 -6 30 -5 33 17 29 15 -2 25 -11 27 -24z"/>
<path d="M4917 3123 c-13 -12 -7 -50 9 -64 12 -10 37 -10 127 -1 113 12 141
22 119 44 -9 9 -34 8 -107 -1 -100 -12 -115 -10 -115 15 0 14 -21 19 -33 7z"/>
<path d="M394 3109 c-18 -23 -22 -43 -12 -68 6 -17 5 -27 -3 -32 -25 -15 0
-36 53 -42 88 -11 128 -9 128 7 0 16 -14 21 -82 31 -50 6 -74 25 -64 51 5 12
20 15 68 14 86 -2 88 -2 88 14 0 21 -8 24 -91 32 -57 5 -77 3 -85 -7z"/>
<path d="M5205 3110 c-4 -7 -3 -16 3 -22 14 -14 45 -2 40 15 -6 16 -34 21 -43
7z"/>
<path d="M12 3060 c0 -14 2 -19 5 -12 2 6 2 18 0 25 -3 6 -5 1 -5 -13z"/>
<path d="M1950 2978 c0 -120 14 -220 36 -253 36 -55 166 -75 232 -35 55 34 70
83 74 245 l3 140 -39 0 -39 0 -1 -142 c-1 -127 -3 -144 -22 -170 -23 -31 -78
-42 -114 -23 -34 18 -42 58 -41 203 l0 137 -44 0 -45 0 0 -102z"/>
<path d="M3262 2928 c4 -171 13 -203 71 -239 26 -16 45 -19 105 -17 70 3 76 5
107 39 42 46 55 106 55 254 l0 115 -40 0 -40 0 0 -134 c0 -182 -14 -216 -90
-216 -75 0 -90 36 -90 223 l0 127 -41 0 -41 0 4 -152z"/>
<path d="M5004 3006 c-14 -23 -14 -28 2 -61 14 -29 15 -38 4 -45 -7 -4 -9 -13
-6 -19 10 -15 133 -3 164 15 46 29 21 134 -31 134 -24 0 -21 -23 4 -38 24 -15
22 -55 -3 -60 -11 -2 -20 8 -28 35 -17 52 -28 63 -61 63 -19 0 -34 -8 -45 -24z
m76 -42 c15 -38 12 -46 -11 -42 -27 4 -44 30 -36 52 10 24 36 19 47 -10z"/>
<path d="M3 2945 c0 -27 2 -38 4 -22 2 15 2 37 0 50 -2 12 -4 0 -4 -28z"/>
<path d="M452 2921 c-81 -7 -92 -15 -92 -73 0 -52 46 -99 65 -67 4 6 -3 20
-15 31 -24 23 -24 61 1 66 12 2 19 -9 28 -42 7 -29 20 -52 36 -62 23 -15 27
-15 50 0 27 18 33 53 14 89 -9 16 -9 22 0 25 15 5 14 42 -1 40 -7 -1 -46 -4
-86 -7z m56 -53 c20 -20 15 -58 -8 -58 -19 0 -40 33 -40 61 0 13 34 11 48 -3z"/>
<path d="M5016 2828 c-22 -31 -20 -84 4 -108 38 -38 78 -20 100 45 6 19 18 35
26 35 19 0 18 -39 -2 -62 -16 -16 -15 -18 0 -24 23 -9 44 13 52 53 5 26 1 37
-19 57 -34 34 -64 23 -91 -34 -23 -47 -34 -53 -50 -28 -8 13 -5 22 13 42 23
25 22 46 -4 46 -8 0 -21 -10 -29 -22z"/>
<path d="M386 2719 c-27 -21 -34 -60 -16 -89 11 -18 -5 -30 -42 -30 -31 0 -43
-13 -25 -28 15 -12 237 4 251 18 7 7 6 14 -1 21 -6 6 -8 29 -6 53 5 37 2 46
-18 60 -34 23 -110 21 -143 -5z m118 -35 c33 -33 9 -66 -48 -66 -45 0 -56 8
-56 37 0 42 72 62 104 29z"/>
<path d="M5040 2657 c-29 -15 -50 -52 -50 -90 0 -67 38 -91 163 -101 76 -6 88
-5 94 9 9 24 -14 35 -72 35 -64 1 -126 15 -136 32 -13 20 -10 45 7 63 14 13
31 15 115 9 96 -7 99 -6 99 14 0 25 -12 28 -120 37 -52 4 -83 1 -100 -8z"/>
<path d="M3 2615 c0 -27 2 -38 4 -22 2 15 2 37 0 50 -2 12 -4 0 -4 -28z"/>
<path d="M381 2531 c-12 -21 -5 -51 11 -51 6 0 5 -7 -2 -15 -9 -11 -10 -19 -2
-27 15 -15 179 9 186 28 8 21 -17 28 -77 21 -60 -7 -74 -2 -78 32 -5 31 -25
38 -38 12z"/>
<path d="M12 2500 c0 -14 2 -19 5 -12 2 6 2 18 0 25 -3 6 -5 1 -5 -13z"/>
<path d="M4975 2429 c-10 -15 -3 -19 66 -35 69 -16 81 -27 72 -61 -4 -18 -1
-23 15 -23 25 0 35 25 22 51 -7 13 -7 19 0 19 5 0 10 9 10 19 0 15 -12 21 -63
30 -80 14 -114 14 -122 0z"/>
<path d="M2680 2413 c0 -6 7 -16 15 -23 19 -16 19 -29 -2 -52 -14 -16 -15 -24
-6 -49 12 -31 8 -59 -8 -59 -5 0 -9 11 -9 24 0 14 -4 28 -10 31 -17 10 -11
-44 7 -72 l17 -25 -35 7 c-18 4 -77 23 -130 41 -121 42 -169 50 -200 34 -33
-18 -39 -29 -39 -73 0 -50 40 -92 104 -108 25 -6 46 -15 46 -20 0 -17 61 -39
109 -39 28 0 74 9 103 20 l53 19 -30 -24 c-16 -14 -33 -25 -37 -25 -5 0 -8 -9
-8 -19 0 -33 -12 -52 -38 -62 -14 -5 -23 -12 -20 -15 12 -11 58 18 73 46 22
43 33 37 25 -15 -4 -27 -17 -57 -32 -73 -13 -15 -31 -46 -38 -69 -7 -24 -24
-50 -37 -59 -14 -8 -22 -18 -19 -21 9 -10 76 47 76 65 0 9 11 27 23 39 l24 22
12 -48 c16 -61 45 -109 76 -123 14 -6 25 -17 25 -25 0 -7 22 9 49 36 37 37 51
61 61 99 11 46 14 50 30 39 11 -6 21 -20 24 -32 7 -26 63 -81 73 -71 4 4 -2
15 -13 24 -25 20 -44 53 -44 78 0 9 -13 32 -30 51 -23 25 -30 43 -30 74 0 44
14 45 30 3 9 -23 57 -51 68 -39 4 3 -3 8 -15 11 -22 6 -47 49 -38 64 3 5 -12
21 -35 36 -22 15 -40 28 -40 29 0 2 24 -6 53 -17 70 -27 166 -22 200 10 13 13
41 27 61 33 20 6 51 23 68 38 25 22 31 35 31 70 0 26 -7 49 -17 59 -24 24
-109 21 -176 -6 -70 -28 -192 -63 -199 -57 -2 3 1 11 7 17 7 7 12 26 12 43
l-1 30 -12 -29 c-11 -26 -14 -27 -26 -12 -11 13 -11 20 -3 28 17 17 15 68 -3
74 -18 7 -20 30 -2 37 9 4 9 6 0 6 -6 1 -15 -3 -18 -9 -3 -5 -30 -10 -60 -10
-46 0 -56 4 -74 26 -12 15 -21 22 -21 17z m114 -87 c7 -27 38 -40 56 -22 8 8
10 7 5 -5 -5 -12 -20 -15 -75 -14 -38 1 -73 5 -77 10 -5 4 -1 5 7 3 23 -8 50
10 50 32 0 28 27 25 34 -4z m-322 -89 c35 -13 94 -32 131 -42 37 -10 70 -22
73 -27 3 -4 -24 -7 -60 -6 -36 1 -69 -1 -73 -5 -3 -4 23 -7 60 -7 36 0 68 -4
71 -9 10 -16 -23 -21 -99 -14 -59 5 -84 2 -121 -12 -38 -15 -53 -16 -85 -6
-67 20 -101 91 -62 133 23 25 88 23 165 -5z m778 4 c5 -11 10 -33 10 -49 0
-60 -109 -118 -149 -79 -8 8 -47 12 -114 13 -128 1 -133 2 -122 13 11 10 170
18 195 9 8 -2 11 -3 7 0 -4 2 -3 10 3 17 9 11 6 12 -12 8 l-23 -6 20 24 c19
22 18 22 -12 -3 -27 -22 -42 -26 -102 -26 -39 -1 -71 2 -71 7 0 4 24 13 53 20
28 8 86 26 127 42 93 34 174 39 190 10z m-620 -142 c-20 -7 -17 -8 18 -6 52 3
54 -6 3 -26 -84 -34 -182 -31 -205 6 -18 28 10 37 114 36 67 -1 88 -4 70 -10z
m469 2 c20 -13 6 -39 -26 -52 -37 -14 -125 -4 -171 21 l-37 19 40 2 c35 1 37
2 15 9 -17 5 7 8 70 9 52 0 101 -3 109 -8z m-259 -41 c0 -6 -28 -10 -65 -10
-37 0 -65 4 -65 10 0 6 28 10 65 10 37 0 65 -4 65 -10z m30 -79 c0 -25 -11
-28 -103 -28 -78 0 -93 6 -83 32 4 12 26 15 96 15 82 0 90 -2 90 -19z m10 -93
c-1 -34 -16 -39 -106 -36 -84 3 -89 4 -92 26 -3 22 -1 22 97 22 74 0 101 -3
101 -12z m-20 -96 c0 -7 -12 -17 -26 -22 -52 -20 -144 -6 -144 22 0 10 23 13
85 13 62 0 85 -3 85 -13z m-50 -82 c-20 -13 -57 -13 -65 0 -4 6 11 10 37 10
31 0 39 -3 28 -10z"/>
<path d="M2488 2188 c8 -8 6 -16 -10 -30 -24 -21 -22 -22 20 -7 29 10 30 11
14 30 -9 10 -21 19 -26 19 -6 0 -5 -5 2 -12z"/>
<path d="M2563 2083 c9 -2 23 -2 30 0 6 3 -1 5 -18 5 -16 0 -22 -2 -12 -5z"/>
<path d="M2968 2083 c6 -2 18 -2 25 0 6 3 1 5 -13 5 -14 0 -19 -2 -12 -5z"/>
<path d="M4236 2407 c3 -10 9 -15 12 -12 3 3 0 11 -7 18 -10 9 -11 8 -5 -6z"/>
<path d="M398 2383 c-53 -12 -68 -20 -68 -34 0 -27 10 -29 80 -14 124 27 150
20 150 -40 0 -25 -24 -38 -105 -55 -93 -19 -95 -20 -95 -40 0 -24 6 -24 106
-4 123 25 155 57 134 135 -19 70 -67 82 -202 52z"/>
<path d="M4953 2289 c3 -13 -1 -28 -9 -37 -9 -8 -14 -28 -12 -45 6 -62 111
-100 167 -61 19 13 22 24 19 55 -3 31 0 38 12 34 50 -14 68 -16 75 -5 4 6 3
16 -3 22 -12 12 -188 58 -226 58 -24 0 -27 -3 -23 -21z m101 -40 c44 -20 44
-64 1 -75 -30 -7 -79 16 -83 39 -8 40 33 58 82 36z"/>
<path d="M564 2182 c-19 -13 -34 -50 -34 -86 0 -25 -5 -36 -14 -36 -19 0 -25
29 -12 58 11 27 1 40 -22 26 -42 -27 -9 -124 42 -124 31 0 46 18 46 56 0 46 9
64 32 64 17 0 19 -5 15 -27 -12 -61 -12 -68 3 -68 24 0 42 48 29 82 -20 53
-54 76 -85 55z"/>
<path d="M4907 2112 c-10 -10 -17 -33 -17 -52 0 -19 -7 -38 -17 -45 -19 -14
-10 -35 16 -35 10 0 35 -7 54 -15 60 -25 94 -20 112 16 20 37 16 88 -7 103
-25 15 -34 0 -18 -30 16 -28 5 -57 -24 -62 -14 -3 -16 5 -14 53 2 46 -1 60
-17 71 -26 19 -49 18 -68 -4z m52 -36 c12 -15 5 -66 -9 -66 -9 0 -40 28 -40
36 0 12 21 44 29 44 5 0 14 -6 20 -14z"/>
<path d="M91 2054 c0 -11 3 -14 6 -6 3 7 2 16 -1 19 -3 4 -6 -2 -5 -13z"/>
<path d="M588 2004 c-65 -32 -68 -35 -68 -70 0 -26 8 -43 29 -65 33 -33 43
-35 60 -15 10 12 7 17 -16 28 -19 9 -28 21 -28 37 0 39 20 35 49 -9 27 -41 50
-49 87 -30 26 14 25 64 -2 91 -11 11 -19 30 -17 42 4 31 -17 29 -94 -9z m98
-55 c3 -6 -1 -18 -10 -27 -16 -16 -19 -15 -43 12 -24 28 -24 30 -7 37 20 7 48
-4 60 -22z"/>
<path d="M4843 1943 c-4 -9 -2 -18 3 -20 49 -18 109 -61 112 -81 5 -32 -18
-36 -77 -12 -104 41 -125 14 -26 -34 32 -16 70 -28 84 -28 31 0 53 29 48 64
-2 19 2 28 15 31 41 11 22 26 -95 76 -58 25 -56 25 -64 4z"/>
<path d="M678 1843 c-92 -43 -117 -66 -85 -79 7 -2 45 11 84 30 94 47 119 52
131 30 11 -20 32 -10 32 15 0 21 -31 51 -51 50 -8 0 -58 -21 -111 -46z"/>
<path d="M720 1780 c0 -6 10 -14 23 -19 38 -15 52 -38 39 -66 -7 -14 -15 -25
-19 -25 -5 0 -19 20 -32 44 -29 56 -46 62 -77 31 -65 -65 8 -161 98 -126 66
26 88 93 47 145 -21 26 -79 38 -79 16z m-5 -90 c20 -39 19 -42 -12 -38 -28 3
-40 25 -29 54 9 22 24 17 41 -16z"/>
<path d="M4756 1768 c-9 -12 -16 -35 -16 -50 0 -18 -5 -28 -15 -28 -8 0 -15
-9 -15 -20 0 -11 6 -20 14 -20 7 0 34 -11 60 -25 26 -14 58 -25 71 -25 50 0
88 99 50 130 -22 18 -41 -1 -27 -26 14 -27 -3 -67 -25 -62 -10 2 -17 10 -15
17 14 64 13 99 -3 114 -23 24 -61 21 -79 -5z m58 -72 c-9 -36 -38 -31 -42 8
-4 34 16 52 36 32 8 -8 11 -23 6 -40z"/>
<path d="M522 1753 c2 -10 10 -18 18 -18 8 0 16 8 18 18 2 12 -3 17 -18 17
-15 0 -20 -5 -18 -17z"/>
<path d="M791 1613 c-33 -16 -71 -65 -71 -91 0 -8 14 -27 30 -42 l30 -28 -35
-22 c-38 -23 -44 -37 -20 -47 20 -7 215 121 215 142 0 8 -7 15 -15 15 -9 0
-15 9 -15 24 0 26 -42 66 -69 66 -9 0 -31 -8 -50 -17z m84 -44 c13 -20 -5 -57
-37 -72 -58 -28 -93 19 -46 63 23 21 72 27 83 9z"/>
<path d="M4672 1609 c-33 -30 -44 -64 -30 -94 18 -39 44 -41 93 -6 52 37 55
38 55 7 0 -18 -8 -27 -31 -35 -34 -12 -31 -31 6 -31 28 0 65 43 65 75 0 53
-66 68 -106 24 -22 -24 -54 -25 -54 -1 0 25 19 42 48 42 17 0 23 5 20 18 -5
25 -40 26 -66 1z"/>
<path d="M3000 1243 c1 -245 3 -313 12 -298 6 11 33 58 60 104 26 46 45 88 41
95 -3 6 -2 8 2 3 5 -4 18 10 30 30 12 21 55 97 97 168 41 72 85 149 97 173
l21 42 -180 0 -180 0 0 -317z"/>
<path d="M875 1390 c-66 -102 -77 -133 -51 -143 16 -6 235 58 250 73 5 5 6 16
2 25 -6 16 -16 15 -62 -2 -6 -2 -23 13 -39 33 -27 35 -27 37 -11 64 21 37 20
50 -4 50 -14 0 -38 -29 -85 -100z m85 -63 c0 -3 -20 -12 -45 -20 -25 -9 -45
-13 -45 -9 0 4 12 24 26 45 l25 38 20 -25 c10 -13 19 -26 19 -29z"/>
<path d="M4572 1456 c-31 -16 -62 -65 -62 -95 0 -41 152 -170 185 -157 26 10
17 23 -55 78 -73 55 -89 82 -70 117 17 33 52 25 124 -30 64 -48 95 -58 103
-32 4 12 -91 89 -144 117 -38 19 -50 20 -81 2z"/>
<path d="M1117 1333 c-29 -7 -13 -27 27 -34 46 -8 103 -60 116 -109 15 -54
-20 -117 -83 -149 -42 -21 -52 -23 -86 -12 -46 13 -101 71 -101 106 0 51 37
95 90 108 23 6 60 -6 50 -16 -3 -3 -32 -22 -64 -42 -58 -37 -59 -38 -40 -54
11 -9 23 -24 27 -34 26 -68 180 -20 180 57 0 30 -19 56 -39 56 -8 0 -14 6 -14
13 0 43 -91 62 -149 33 -42 -22 -76 -93 -67 -141 10 -51 68 -110 118 -119 116
-21 238 98 208 203 -23 80 -112 149 -173 134z m74 -159 c11 -14 9 -20 -19 -45
-47 -43 -102 -37 -88 9 7 20 53 51 77 52 9 0 23 -7 30 -16z"/>
<path d="M4434 1299 c-3 -6 15 -32 41 -59 79 -80 43 -123 -43 -51 -53 45 -72
51 -72 23 0 -23 102 -112 129 -112 22 0 47 21 56 49 3 10 15 21 25 24 29 7 17
28 -50 86 -60 52 -74 59 -86 40z"/>
<path d="M4305 1169 c-7 -10 5 -27 74 -101 33 -36 71 -50 71 -27 0 17 -111
139 -126 139 -7 0 -16 -5 -19 -11z"/>
<path d="M4212 1080 c-9 -16 -24 -29 -32 -27 -34 5 -15 -34 56 -118 42 -49 80
-91 85 -93 20 -8 20 29 0 54 -26 33 -26 44 -3 44 28 0 52 32 52 68 0 21 -10
43 -31 67 -26 29 -38 35 -71 35 -33 0 -42 -5 -56 -30z m97 -36 c27 -34 27 -60
0 -75 -40 -21 -93 40 -75 87 9 23 53 16 75 -12z"/>
<path d="M4455 1010 c-8 -14 3 -30 21 -30 8 0 14 9 14 20 0 21 -24 28 -35 10z"/>
<path d="M1298 980 l-30 -30 4 -111 c3 -110 3 -111 33 -135 27 -22 39 -24 133
-24 100 0 104 1 132 28 31 31 43 91 36 177 -5 64 -22 100 -53 114 -13 6 -69
11 -124 11 -98 0 -101 -1 -131 -30z m257 -15 c23 -22 25 -32 25 -109 0 -47 -4
-96 -9 -109 -14 -36 -59 -50 -150 -46 -113 6 -125 19 -129 139 -4 88 -4 90 26
120 29 29 34 30 122 30 83 0 93 -2 115 -25z"/>
<path d="M1512 938 c6 -18 28 -21 28 -4 0 9 -7 16 -16 16 -9 0 -14 -5 -12 -12z"/>
<path d="M1405 918 c-31 -17 -45 -39 -45 -73 0 -68 86 -100 135 -50 33 33 32
70 -4 106 -31 31 -53 35 -86 17z m73 -30 c17 -17 15 -64 -4 -82 -49 -50 -124
24 -77 76 18 20 63 24 81 6z"/>
<path d="M4080 980 c-11 -11 -20 -24 -20 -30 0 -5 -11 -10 -25 -10 -14 0 -25
-5 -25 -11 0 -10 76 -107 95 -121 36 -27 120 29 113 74 -4 32 -38 37 -38 6 0
-29 -17 -48 -42 -48 -26 0 -22 20 12 60 35 40 37 60 12 83 -25 23 -58 21 -82
-3z m55 -30 c9 -15 -23 -62 -38 -57 -14 4 -21 32 -13 53 6 16 42 19 51 4z"/>
<path d="M3932 885 c-42 -19 -58 -59 -36 -92 15 -23 19 -24 75 -18 59 7 67 3
50 -24 -6 -9 -19 -12 -40 -8 -35 7 -50 -8 -28 -30 10 -10 24 -13 45 -8 52 11
80 59 55 95 -14 20 -21 21 -68 15 -57 -7 -76 4 -54 31 9 11 23 14 46 11 38 -7
50 5 27 27 -19 19 -29 19 -72 1z"/>
<path d="M2943 827 c-24 -10 -53 -63 -53 -95 0 -24 25 -52 46 -52 22 0 62 47
69 81 13 57 -15 87 -62 66z m33 -33 c7 -29 -6 -85 -21 -86 -21 -1 -29 30 -16
71 14 47 28 53 37 15z"/>
<path d="M3097 812 c-33 -35 -147 -213 -147 -229 0 -25 19 -13 63 40 68 81
127 168 127 188 0 29 -15 30 -43 1z"/>
<path d="M2444 796 c-38 -17 -51 -35 -34 -46 10 -6 7 -24 -14 -81 -21 -57 -24
-74 -14 -80 25 -16 53 18 80 97 27 80 34 124 21 124 -5 -1 -22 -7 -39 -14z"/>
<path d="M2565 788 c-34 -26 -55 -75 -55 -125 1 -105 111 -101 156 6 17 41 18
113 2 129 -19 19 -73 14 -103 -10z m63 -23 c15 -32 15 -49 1 -98 -19 -69 -59
-58 -59 16 0 41 23 107 38 107 5 0 14 -11 20 -25z"/>
<path d="M2761 794 c-29 -21 -60 -89 -61 -132 0 -43 40 -86 73 -76 38 11 77
56 93 109 14 45 15 56 3 81 -11 23 -22 30 -49 32 -21 2 -45 -4 -59 -14z m59
-23 c14 -28 13 -76 -4 -116 -17 -39 -30 -44 -46 -16 -15 29 -12 76 7 116 19
40 28 43 43 16z"/>
<path d="M3117 689 c-24 -14 -47 -62 -47 -99 0 -23 6 -33 25 -42 38 -17 75 23
83 87 6 59 -16 80 -61 54z m38 -37 c7 -34 -10 -85 -28 -80 -26 9 -15 108 13
108 4 0 11 -13 15 -28z"/>
<path d="M2194 501 c-95 -58 -119 -180 -43 -211 67 -28 138 17 160 102 19 71
-14 127 -50 84 -10 -11 -9 -24 0 -55 10 -35 9 -44 -8 -73 -35 -60 -83 -42 -83
31 0 48 32 97 75 115 19 8 35 17 35 20 0 13 -57 4 -86 -13z"/>
<path d="M3082 508 c-17 -17 -15 -48 3 -48 17 0 39 36 30 50 -8 13 -18 13 -33
-2z"/>
<path d="M2354 414 c-8 -19 -17 -54 -21 -79 -4 -36 -2 -46 11 -51 26 -10 46
15 46 57 0 21 5 41 10 44 6 3 10 -1 10 -10 0 -9 5 -13 10 -10 6 3 10 23 10 44
0 36 -2 38 -31 39 -26 1 -33 -5 -45 -34z"/>
<path d="M2535 430 c-47 -23 -85 -75 -85 -113 0 -39 26 -45 73 -18 21 12 41
21 43 18 6 -5 -17 -70 -29 -82 -6 -7 -8 1 -4 23 8 39 -4 41 -32 6 -24 -31 -18
-54 16 -54 64 0 118 88 109 179 -3 24 -6 44 -8 46 -16 14 -50 12 -83 -5z m35
-34 c-5 -13 -7 -26 -4 -28 8 -9 -35 -40 -45 -33 -7 4 -6 17 5 38 25 48 61 67
44 23z"/>
<path d="M2740 443 c-31 -11 -80 -68 -86 -100 -11 -58 42 -86 81 -43 23 25 32
25 40 -1 5 -14 14 -19 28 -17 20 3 22 9 21 76 0 52 -4 76 -15 83 -15 10 -45
11 -69 2z m23 -29 c3 -4 2 -15 -4 -25 -7 -14 -6 -19 2 -19 7 0 5 -8 -6 -20
-39 -43 -62 -6 -29 45 17 25 26 30 37 19z"/>
<path d="M2898 433 c-18 -21 -38 -86 -38 -125 0 -39 23 -36 65 10 34 37 34 37
35 11 0 -31 23 -54 45 -45 13 5 15 19 13 73 -2 38 -8 68 -14 70 -6 2 -26 -9
-44 -24 -29 -24 -32 -25 -26 -6 7 21 -1 53 -14 53 -4 0 -14 -8 -22 -17z"/>
<path d="M3175 415 c-56 -58 -55 -135 0 -135 27 0 84 44 72 56 -4 4 -13 2 -19
-4 -26 -26 -41 -14 -35 29 3 23 11 47 18 53 9 8 10 6 6 -12 -3 -14 -1 -22 6
-19 18 6 31 33 24 51 -10 26 -37 19 -72 -19z"/>
<path d="M3355 438 c-41 -22 -75 -62 -81 -95 -12 -63 38 -84 87 -37 l26 25 7
-26 c5 -20 12 -26 29 -23 20 3 22 8 21 76 0 77 -8 92 -49 92 -11 -1 -29 -6
-40 -12z m23 -43 c-4 -16 0 -25 10 -27 12 -2 8 -8 -12 -21 -40 -27 -55 -9 -33
38 19 40 42 47 35 10z"/>
<path d="M3060 416 c-25 -68 -23 -136 5 -136 16 0 45 86 45 132 0 36 -36 40
-50 4z"/>
<path d="M3448 83 c7 -3 16 -2 19 1 4 3 -2 6 -13 5 -11 0 -14 -3 -6 -6z"/>
<path d="M2663 3 c15 -2 37 -2 50 0 12 2 0 4 -28 4 -27 0 -38 -2 -22 -4z"/>
<path d="M2858 3 c12 -2 30 -2 40 0 9 3 -1 5 -23 4 -22 0 -30 -2 -17 -4z"/>
</g>
</svg>
